<svg preserveAspectRatio="none" overflow="visible" style="display: block;" width="222.75" height="48.75" viewBox="0 0 222.75 48.75" fill="none" xmlns="http://www.w3.org/2000/svg">
<g id="Arrows" opacity="0.4">
<path id="Vector" d="M0.750003 40.5582C0.750003 40.5582 43.7087 0.75 108.627 0.75C173.545 0.75 216.504 40.5583 216.504 40.5583" stroke="#1FA628" stroke-width="1.5" stroke-linecap="round" stroke-linejoin="round" stroke-dasharray="12 8"/>
<path id="Vector_2" d="M216.041 28.2485C215.98 27.8381 215.598 27.5552 215.189 27.6167C214.781 27.6781 214.499 28.0607 214.561 28.4711L215.301 28.3598L216.041 28.2485ZM217.252 41.3413L217.358 42.0853C217.555 42.0572 217.733 41.9511 217.853 41.7905C217.972 41.6299 218.022 41.4281 217.992 41.23L217.252 41.3413ZM204.2 42.4332C203.79 42.4913 203.506 42.8714 203.564 43.2823C203.622 43.6932 204.001 43.9793 204.411 43.9212L204.305 43.1772L204.2 42.4332ZM215.301 28.3598L214.561 28.4711L216.512 41.4525L217.252 41.3413L217.992 41.23L216.041 28.2485L215.301 28.3598ZM217.252 41.3413L217.147 40.5973L204.2 42.4332L204.305 43.1772L204.411 43.9212L217.358 42.0853L217.252 41.3413Z" fill="#1FA628"/>
</g>
</svg>
